<svg width="55" height="67" viewBox="0 0 55 67" fill="none" xmlns="http://www.w3.org/2000/svg">
<g filter="url(#filter0_i_8_31)">
<path d="M0.559998 58V2H27.52C32.7467 2 37.2533 2.8533 41.04 4.56C44.88 6.2667 47.84 8.72 49.92 11.92C52 15.0667 53.04 18.8 53.04 23.12C53.04 27.44 52 31.1733 49.92 34.32C47.84 37.4133 44.88 39.7867 41.04 41.44C37.2533 43.0933 32.7467 43.92 27.52 43.92H11.04L19.44 36.16V58H0.559998ZM34.08 58L20.32 37.6H40.32L54.24 58H34.08ZM19.44 38.24L11.04 29.68H26.32C28.9333 29.68 30.8533 29.0933 32.08 27.92C33.36 26.7467 34 25.1467 34 23.12C34 21.0933 33.36 19.4933 32.08 18.32C30.8533 17.1467 28.9333 16.56 26.32 16.56H11.04L19.44 8V38.24Z" fill="#262829"/>
</g>
<path d="M1.5463 53.1979L8.5614 41.0822L13.6481 43.4729L10.8644 39.1802C11.2604 38.177 11.6224 37.3389 11.9504 36.666C12.3051 35.9469 12.6161 35.3566 12.8833 34.8951C14.6471 31.8489 16.768 29.41 19.2459 27.5785C21.77 25.7736 24.5759 24.4401 27.6635 23.5779L20.0262 17.7691L15.1073 10.2989C18.1174 5.6324 21.7469 2.5571 25.9958 1.0731C30.2446 -0.411003 34.9027 0.00579858 39.97 2.3236C40.3199 2.4645 40.6332 2.6152 40.9102 2.7755C41.1871 2.9358 41.464 3.0962 41.7409 3.2565C43.6333 4.3522 45.1345 5.5912 46.2446 6.9735C47.4276 8.3364 48.7017 9.9677 50.0668 11.8675C52.3186 14.8969 53.6643 17.8947 54.1038 20.8608C54.6163 23.8076 53.9238 26.9194 52.0263 30.1964C50.4763 32.8734 48.4988 35.1179 46.0937 36.93C43.6887 38.7422 40.6083 40.0708 36.8526 40.916C34.7926 41.3872 32.8989 42.2628 31.1716 43.543C29.4711 44.777 28.1131 46.2709 27.0975 48.0248C26.8837 48.394 26.6663 48.8228 26.4452 49.311C26.2241 49.7993 25.9787 50.4892 25.709 51.3807L22.2948 49.7736L25.1186 53.997L18.1035 66.1127L6.4651 60.6681L1.5463 53.1979ZM20.2509 42.7663C20.5935 41.8553 21.0053 40.9845 21.4863 40.1537C22.582 38.2613 24.0069 36.652 25.7609 35.3257C27.561 34.0261 29.5506 33.1444 31.7297 32.6805C35.3858 31.9009 38.3799 30.6148 40.7121 28.8221C43.0443 27.0294 44.9453 24.8638 46.4151 22.3253C48.4462 18.8175 49.0014 15.4105 48.0809 12.1042C47.2332 8.7785 44.9632 6.0467 41.2708 3.9088C40.9939 3.7484 40.717 3.5881 40.4401 3.4277C40.2093 3.2941 39.9421 3.1702 39.6384 3.056C34.7824 0.798998 30.3162 0.369998 26.2399 1.7691C22.2364 3.1487 18.8632 5.941 16.1203 10.1459L23.9654 16.0749C27.0532 11.6999 30.3619 10.3494 33.8915 12.0234L34.5146 12.3842C35.807 13.1324 36.6219 14.0665 36.9596 15.1864C37.2972 16.3063 37.1453 17.4202 36.5039 18.5279C35.7556 19.8202 34.7535 20.9655 33.4975 21.9639C32.3144 22.9429 30.8386 23.629 29.0701 24.0225C25.8901 24.8313 22.9555 26.1211 20.2662 27.8919C17.6231 29.6894 15.3929 32.1574 13.5757 35.296C12.9877 36.3114 12.4022 37.4822 11.8191 38.8086L20.2509 42.7663ZM35.95 18.2072C34.9346 17.6192 33.7989 17.8245 32.543 18.8228C31.287 19.8212 30.0115 21.3321 28.7166 23.3556C30.0552 22.9597 31.3719 22.3355 32.6667 21.4829C34.0077 20.657 35.1022 19.5651 35.95 18.2072ZM8.8929 42.1062L2.6394 52.9064L12.813 57.6877L19.0664 46.8875L8.8929 42.1062Z" fill="white"/>
<defs>
<filter id="filter0_i_8_31" x="0.559998" y="2" width="53.68" height="60" filterUnits="userSpaceOnUse" color-interpolation-filters="sRGB">
<feFlood flood-opacity="0" result="BackgroundImageFix"/>
<feBlend mode="normal" in="SourceGraphic" in2="BackgroundImageFix" result="shape"/>
<feColorMatrix in="SourceAlpha" type="matrix" values="0 0 0 0 0 0 0 0 0 0 0 0 0 0 0 0 0 0 127 0" result="hardAlpha"/>
<feOffset dy="4"/>
<feGaussianBlur stdDeviation="2"/>
<feComposite in2="hardAlpha" operator="arithmetic" k2="-1" k3="1"/>
<feColorMatrix type="matrix" values="0 0 0 0 0 0 0 0 0 0 0 0 0 0 0 0 0 0 0.25 0"/>
<feBlend mode="normal" in2="shape" result="effect1_innerShadow_8_31"/>
</filter>
</defs>
</svg>
