<svg width="90" height="90" viewBox="0 0 90 90" fill="none" xmlns="http://www.w3.org/2000/svg">
<g filter="url(#filter0_i_5_15)">
<path d="M17.56 74V18H44.52C49.7467 18 54.2533 18.8533 58.04 20.56C61.88 22.2667 64.84 24.72 66.92 27.92C69 31.0667 70.04 34.8 70.04 39.12C70.04 43.44 69 47.1733 66.92 50.32C64.84 53.4133 61.88 55.7867 58.04 57.44C54.2533 59.0933 49.7467 59.92 44.52 59.92H28.04L36.44 52.16V74H17.56ZM51.08 74L37.32 53.6H57.32L71.24 74H51.08ZM36.44 54.24L28.04 45.68H43.32C45.9333 45.68 47.8533 45.0933 49.08 43.92C50.36 42.7467 51 41.1467 51 39.12C51 37.0933 50.36 35.4933 49.08 34.32C47.8533 33.1467 45.9333 32.56 43.32 32.56H28.04L36.44 24V54.24Z" fill="#262829"/>
</g>
<path d="M18.5463 69.1979L25.5614 57.0822L30.6481 59.4729L27.8644 55.1802C28.2604 54.177 28.6224 53.3389 28.9504 52.666C29.3051 51.9469 29.6161 51.3566 29.8833 50.8951C31.6471 47.8489 33.768 45.41 36.2459 43.5785C38.77 41.7736 41.5759 40.4401 44.6635 39.5779L37.0262 33.7691L32.1073 26.2989C35.1174 21.6324 38.7469 18.5571 42.9958 17.0731C47.2446 15.589 51.9027 16.0058 56.97 18.3236C57.3199 18.4645 57.6332 18.6152 57.9102 18.7755C58.1871 18.9358 58.464 19.0962 58.7409 19.2565C60.6333 20.3522 62.1345 21.5912 63.2446 22.9735C64.4276 24.3364 65.7017 25.9677 67.0668 27.8675C69.3186 30.8969 70.6643 33.8947 71.1038 36.8608C71.6163 39.8076 70.9238 42.9194 69.0263 46.1964C67.4763 48.8734 65.4988 51.1179 63.0937 52.93C60.6887 54.7422 57.6083 56.0708 53.8526 56.916C51.7926 57.3872 49.8989 58.2628 48.1716 59.543C46.4711 60.777 45.1131 62.2709 44.0975 64.0248C43.8837 64.394 43.6663 64.8228 43.4452 65.311C43.2241 65.7993 42.9787 66.4892 42.709 67.3807L39.2948 65.7736L42.1186 69.997L35.1035 82.1127L23.4651 76.6681L18.5463 69.1979ZM37.2509 58.7663C37.5935 57.8553 38.0053 56.9845 38.4863 56.1537C39.582 54.2613 41.0069 52.652 42.7609 51.3257C44.561 50.0261 46.5506 49.1444 48.7297 48.6805C52.3858 47.9009 55.3799 46.6148 57.7121 44.8221C60.0443 43.0294 61.9453 40.8638 63.4151 38.3253C65.4462 34.8175 66.0014 31.4105 65.0809 28.1042C64.2332 24.7785 61.9632 22.0467 58.2708 19.9088C57.9939 19.7484 57.717 19.5881 57.4401 19.4277C57.2093 19.2941 56.9421 19.1702 56.6384 19.056C51.7824 16.799 47.3162 16.37 43.2399 17.7691C39.2364 19.1487 35.8632 21.941 33.1203 26.1459L40.9654 32.0749C44.0532 27.6999 47.3619 26.3494 50.8915 28.0234L51.5146 28.3842C52.807 29.1324 53.6219 30.0665 53.9596 31.1864C54.2972 32.3063 54.1453 33.4202 53.5039 34.5279C52.7556 35.8202 51.7535 36.9655 50.4975 37.9639C49.3144 38.9429 47.8386 39.629 46.0701 40.0225C42.8901 40.8313 39.9555 42.1211 37.2662 43.8919C34.6231 45.6894 32.3929 48.1574 30.5757 51.296C29.9877 52.3114 29.4022 53.4822 28.8191 54.8086L37.2509 58.7663ZM52.95 34.2072C51.9346 33.6192 50.7989 33.8245 49.543 34.8228C48.287 35.8212 47.0115 37.3321 45.7166 39.3556C47.0552 38.9597 48.3719 38.3355 49.6667 37.4829C51.0077 36.657 52.1022 35.5651 52.95 34.2072ZM25.8929 58.1062L19.6394 68.9064L29.813 73.6877L36.0664 62.8875L25.8929 58.1062Z" fill="#F5F5F5"/>
<defs>
<filter id="filter0_i_5_15" x="17.56" y="18" width="53.68" height="60" filterUnits="userSpaceOnUse" color-interpolation-filters="sRGB">
<feFlood flood-opacity="0" result="BackgroundImageFix"/>
<feBlend mode="normal" in="SourceGraphic" in2="BackgroundImageFix" result="shape"/>
<feColorMatrix in="SourceAlpha" type="matrix" values="0 0 0 0 0 0 0 0 0 0 0 0 0 0 0 0 0 0 127 0" result="hardAlpha"/>
<feOffset dy="4"/>
<feGaussianBlur stdDeviation="2"/>
<feComposite in2="hardAlpha" operator="arithmetic" k2="-1" k3="1"/>
<feColorMatrix type="matrix" values="0 0 0 0 0 0 0 0 0 0 0 0 0 0 0 0 0 0 0.25 0"/>
<feBlend mode="normal" in2="shape" result="effect1_innerShadow_5_15"/>
</filter>
</defs>
</svg>
